SplineFontDB: 3.2
FontName: formicro
FullName: Formicro
FamilyName: Formicro
Weight: Regular
Copyright: 
Version: 1.0.0
ItalicAngle: 0
UnderlinePosition: 0
UnderlineWidth: 0
Ascent: 1000
Descent: 0
InvalidEm: 0
LayerCount: 2
Layer: 0 0 "+gMyXYgAA" 1
Layer: 1 0 "+Uk2XYgAA" 0
XUID: [1021 424 -602532898 7256]
OS2Version: 0
OS2_WeightWidthSlopeOnly: 0
OS2_UseTypoMetrics: 0
CreationTime: 1725543967
ModificationTime: 1725545347
PfmFamily: 17
TTFWeight: 400
TTFWidth: 5
LineGap: 90
VLineGap: 90
OS2TypoAscent: 0
OS2TypoAOffset: 1
OS2TypoDescent: 0
OS2TypoDOffset: 1
OS2TypoLinegap: 90
OS2WinAscent: 0
OS2WinAOffset: 1
OS2WinDescent: 0
OS2WinDOffset: 1
HheadAscent: 0
HheadAOffset: 1
HheadDescent: 0
HheadDOffset: 1
OS2Vendor: 'PfEd'
MarkAttachClasses: 1
DEI: 91125

StartChar: .notdef
Encoding: 0 0 0
Width: 571
VWidth: 1024
HStem: 0 1024<0 1000>
VStem: 0 1000<0 1024>
LayerCount: 2
Fore
SplineSet
0 0 m 1
 0 1024 l 1
 1000 1024 l 1
 1000 0 l 1
 0 0 l 1
EndSplineSet
Validated: 1
EndChar

StartChar: zero
Encoding: 38 48 1
Width: 571
VWidth: 1024
LayerCount: 2
Fore
SplineSet
285.71484 1000 m 1
 285.71484 857.14258 l 1
 428.57227 857.14258 l 1
 428.57227 142.85742 l 1
 285.71484 142.85742 l 1
 285.71484 0 l 1
 142.85742 0 l 1
 142.85742 142.85742 l 1
 0 142.85742 l 1
 0 857.14258 l 1
 142.85742 857.14258 l 1
 142.85742 1000 l 1
 285.71484 1000 l 1
142.85742 571.42773 m 1
 285.71484 571.42773 l 1
 285.71484 857.14258 l 1
 142.85715 857.14285 l 1
 142.85742 571.42773 l 1
142.85715 142.85712 m 1
 285.71484 142.85742 l 1
 285.71484 428.57227 l 1
 142.85742 428.57227 l 1
 142.85715 142.85712 l 1
EndSplineSet
EndChar

StartChar: one
Encoding: 39 49 2
Width: 571
VWidth: 1024
LayerCount: 2
Fore
SplineSet
142.85715 1000 m 1
 285.7143 1000 l 1
 285.7143 -0.0001 l 1
 142.85715 -0.0001 l 1
 142.85715 714.2857 l 1
 0 714.2857 l 1
 0 857.14285 l 1
 142.85715 857.14285 l 1
 142.85715 1000 l 1
EndSplineSet
EndChar

StartChar: two
Encoding: 40 50 3
Width: 571
VWidth: 1024
LayerCount: 2
Fore
SplineSet
142.85715 1000 m 1
 285.7143 1000 l 1
 285.7143 857.14285 l 1
 428.57146 857.14285 l 1
 428.57146 428.57139 l 1
 285.7143 428.57139 l 1
 285.7143 285.71424 l 1
 142.85715 285.71424 l 1
 142.85715 142.85709 l 1
 428.57146 142.85709 l 1
 428.57146 -0.0001 l 1
 0 -0.0001 l 1
 0 285.71424 l 1
 142.85715 285.71424 l 1
 142.85715 428.57139 l 1
 285.7143 428.57139 l 1
 285.7143 857.14285 l 1
 142.85715 857.14285 l 1
 142.85715 571.42854 l 1
 0 571.42854 l 1
 0 857.14285 l 1
 142.85715 857.14285 l 1
 142.85715 1000 l 1
EndSplineSet
EndChar

StartChar: three
Encoding: 41 51 4
Width: 571
VWidth: 1024
LayerCount: 2
Fore
SplineSet
142.85715 1000 m 1
 285.7143 1000 l 1
 285.7143 857.14285 l 1
 428.57146 857.14285 l 1
 428.57146 571.42854 l 1
 285.7143 571.42854 l 1
 285.7143 428.57139 l 1
 428.57146 428.57139 l 1
 428.57146 142.85709 l 1
 285.7143 142.85709 l 1
 285.7143 -0.0001 l 1
 142.85715 -0.0001 l 1
 142.85715 142.85709 l 1
 0 142.85709 l 1
 0 285.71424 l 1
 142.85715 285.71424 l 1
 142.85715 142.85709 l 1
 285.7143 142.85709 l 1
 285.7143 428.57139 l 1
 142.85715 428.57139 l 1
 142.85715 571.42854 l 1
 285.7143 571.42854 l 1
 285.7143 857.14285 l 1
 142.85715 857.14285 l 1
 142.85715 714.2857 l 1
 0 714.2857 l 1
 0 857.14285 l 1
 142.85715 857.14285 l 1
 142.85715 1000 l 1
EndSplineSet
EndChar

StartChar: four
Encoding: 42 52 5
Width: 571
VWidth: 1024
LayerCount: 2
Fore
SplineSet
428.57227 1000 m 1
 428.57227 0 l 1
 285.71484 0 l 1
 285.71484 142.85742 l 1
 0 142.85742 l 1
 0 428.57227 l 1
 142.85742 428.57227 l 1
 142.85742 714.28516 l 1
 285.71484 714.28516 l 1
 285.71484 1000 l 1
 428.57227 1000 l 1
142.85742 428.57227 m 1
 142.85742 285.71484 l 1
 285.71484 285.71484 l 1
 285.71484 428.57227 l 1
 142.85742 428.57227 l 1
EndSplineSet
EndChar

StartChar: five
Encoding: 43 53 6
Width: 571
VWidth: 1024
LayerCount: 2
Fore
SplineSet
0 1000 m 1
 428.57146 1000 l 1
 428.57146 857.14285 l 1
 142.85715 857.14285 l 1
 142.85715 714.2857 l 1
 285.7143 714.2857 l 1
 285.7143 571.42854 l 1
 428.57146 571.42854 l 1
 428.57146 142.85709 l 1
 285.7143 142.85709 l 1
 285.7143 -0.0001 l 1
 142.85715 -0.0001 l 1
 142.85715 142.85709 l 1
 0 142.85709 l 1
 0 285.71424 l 1
 142.85715 285.71424 l 1
 142.85715 142.85709 l 1
 285.7143 142.85709 l 1
 285.7143 571.42854 l 1
 142.85715 571.42854 l 1
 142.85715 428.57139 l 1
 0 428.57139 l 1
 0 1000 l 1
EndSplineSet
EndChar

StartChar: six
Encoding: 44 54 7
Width: 571
VWidth: 1024
LayerCount: 2
Fore
SplineSet
285.71484 1000 m 1
 285.71484 857.14258 l 1
 142.85742 857.14258 l 1
 142.85742 1000 l 1
 285.71484 1000 l 1
428.57227 857.14258 m 1
 428.57227 714.28516 l 1
 285.71484 714.28516 l 1
 285.71484 857.14258 l 1
 428.57227 857.14258 l 1
285.71484 571.42773 m 1
 428.57227 571.42773 l 1
 428.57227 142.85742 l 1
 285.71484 142.85742 l 1
 285.71484 0 l 1
 142.85742 0 l 1
 142.85742 142.85742 l 1
 0 142.85742 l 1
 0 857.14258 l 1
 142.85742 857.14258 l 1
 142.85742 714.28516 l 1
 285.71484 714.28516 l 1
 285.71484 571.42773 l 1
142.85742 142.85742 m 1
 285.71484 142.85742 l 1
 285.71484 571.42773 l 1
 142.85742 571.42773 l 1
 142.85742 142.85742 l 1
EndSplineSet
EndChar

StartChar: seven
Encoding: 45 55 8
Width: 571
VWidth: 1024
LayerCount: 2
Fore
SplineSet
0 1000 m 1
 428.57146 1000 l 1
 428.57146 571.42854 l 1
 285.7143 571.42854 l 1
 285.7143 -0.0001 l 1
 142.85715 -0.0001 l 1
 142.85715 571.42854 l 1
 285.7143 571.42854 l 1
 285.7143 857.14285 l 1
 0 857.14285 l 1
 0 1000 l 1
EndSplineSet
EndChar

StartChar: eight
Encoding: 46 56 9
Width: 571
VWidth: 1024
LayerCount: 2
Fore
SplineSet
285.71484 1000 m 1
 285.71484 857.14258 l 1
 428.57227 857.14258 l 1
 428.57227 571.42773 l 1
 285.71484 571.42773 l 1
 285.71484 428.57227 l 1
 428.57227 428.57227 l 1
 428.57227 142.85742 l 1
 285.71484 142.85742 l 1
 285.71484 0 l 1
 142.85742 0 l 1
 142.85742 142.85742 l 1
 0 142.85742 l 1
 0 428.57227 l 1
 142.85742 428.57227 l 1
 142.85742 571.42773 l 1
 0 571.42773 l 1
 0 857.14258 l 1
 142.85742 857.14258 l 1
 142.85742 1000 l 1
 285.71484 1000 l 1
142.85715 571.42856 m 1
 285.71484 571.42773 l 1
 285.71484 857.14258 l 1
 142.85715 857.14285 l 1
 142.85715 571.42856 l 1
142.85715 142.85712 m 1
 285.71429 142.85712 l 1
 285.71484 428.57227 l 1
 142.85742 428.57227 l 1
 142.85715 142.85712 l 1
EndSplineSet
EndChar

StartChar: nine
Encoding: 47 57 10
Width: 571
VWidth: 1024
LayerCount: 2
Fore
SplineSet
285.71484 1000 m 1
 285.71484 857.14258 l 1
 428.57227 857.14258 l 1
 428.57227 142.85742 l 1
 285.71484 142.85742 l 1
 285.71484 285.71484 l 1
 142.85742 285.71484 l 1
 142.85742 428.57227 l 1
 0 428.57227 l 1
 0 857.14258 l 1
 142.85742 857.14258 l 1
 142.85742 1000 l 1
 285.71484 1000 l 1
285.71484 0 m 1
 142.85742 0 l 1
 142.85742 142.85742 l 1
 285.71484 142.85742 l 1
 285.71484 0 l 1
0 142.85742 m 1
 0 285.71484 l 1
 142.85742 285.71484 l 1
 142.85742 142.85742 l 1
 0 142.85742 l 1
142.85715 428.57141 m 1
 285.71429 428.57141 l 1
 285.71484 857.14258 l 1
 142.85715 857.14285 l 1
 142.85715 428.57141 l 1
EndSplineSet
EndChar

StartChar: A
Encoding: 48 65 11
Width: 571
VWidth: 1024
LayerCount: 2
Fore
SplineSet
285.71484 1000 m 1
 285.71484 571.42773 l 1
 428.57227 571.42773 l 1
 428.57227 0 l 1
 285.71484 0 l 1
 285.71484 285.71484 l 1
 142.85742 285.71484 l 1
 142.85742 0 l 1
 0 0 l 1
 0 571.42773 l 1
 142.85742 571.42773 l 1
 142.85742 1000 l 1
 285.71484 1000 l 1
142.85715 428.57141 m 1
 285.71429 428.57141 l 1
 285.71484 571.42773 l 1
 142.85742 571.42773 l 1
 142.85715 428.57141 l 1
EndSplineSet
EndChar

StartChar: B
Encoding: 49 66 12
Width: 571
VWidth: 1024
LayerCount: 2
Fore
SplineSet
285.71484 1000 m 1
 285.71484 857.14258 l 1
 428.57227 857.14258 l 1
 428.57227 571.42773 l 1
 285.71484 571.42773 l 1
 285.71484 428.57227 l 1
 428.57227 428.57227 l 1
 428.57227 142.85742 l 1
 285.71484 142.85742 l 1
 285.71484 0 l 1
 0 0 l 1
 0 1000 l 1
 285.71484 1000 l 1
142.85715 857.14285 m 1
 142.85715 571.42856 l 1
 285.71429 571.42856 l 1
 285.71429 857.14285 l 1
 142.85715 857.14285 l 1
142.85715 142.85712 m 1
 285.71429 142.85712 l 1
 285.71429 428.57141 l 1
 142.85715 428.57141 l 1
 142.85715 142.85712 l 1
EndSplineSet
EndChar

StartChar: C
Encoding: 50 67 13
Width: 571
VWidth: 1024
LayerCount: 2
Fore
SplineSet
142.85715 1000 m 1
 285.7143 1000 l 1
 285.7143 857.14285 l 1
 428.57146 857.14285 l 1
 428.57146 714.2857 l 1
 285.7143 714.2857 l 1
 285.7143 857.14285 l 1
 142.85715 857.14285 l 1
 142.85715 142.85709 l 1
 285.7143 142.85709 l 1
 285.7143 285.71424 l 1
 428.57146 285.71424 l 1
 428.57146 142.85709 l 1
 285.7143 142.85709 l 1
 285.7143 -0.0001 l 1
 142.85715 -0.0001 l 1
 142.85715 142.85709 l 1
 0 142.85709 l 1
 0 857.14285 l 1
 142.85715 857.14285 l 1
 142.85715 1000 l 1
EndSplineSet
EndChar

StartChar: D
Encoding: 51 68 14
Width: 571
VWidth: 1024
LayerCount: 2
Fore
SplineSet
285.71484 1000 m 1
 285.71484 857.14258 l 1
 428.57227 857.14258 l 1
 428.57227 142.85742 l 1
 285.71484 142.85742 l 1
 285.71484 0 l 1
 0 0 l 1
 0 1000 l 1
 285.71484 1000 l 1
142.85715 142.85712 m 1
 285.71429 142.85712 l 1
 285.71429 857.14285 l 1
 142.85715 857.14285 l 1
 142.85715 142.85712 l 1
EndSplineSet
EndChar

StartChar: E
Encoding: 52 69 15
Width: 571
VWidth: 1024
LayerCount: 2
Fore
SplineSet
0 1000 m 1
 428.57146 1000 l 1
 428.57146 857.14285 l 1
 142.85715 857.14285 l 1
 142.85715 571.42854 l 1
 285.7143 571.42854 l 1
 285.7143 428.57139 l 1
 142.85715 428.57139 l 1
 142.85715 142.85709 l 1
 428.57146 142.85709 l 1
 428.57146 -0.0001 l 1
 0 -0.0001 l 1
 0 1000 l 1
EndSplineSet
EndChar

StartChar: F
Encoding: 53 70 16
Width: 571
VWidth: 1024
LayerCount: 2
Fore
SplineSet
0 1000 m 1
 428.57146 1000 l 1
 428.57146 857.14285 l 1
 142.85715 857.14285 l 1
 142.85715 571.42854 l 1
 285.7143 571.42854 l 1
 285.7143 428.57139 l 1
 142.85715 428.57139 l 1
 142.85715 -0.0001 l 1
 0 -0.0001 l 1
 0 1000 l 1
EndSplineSet
EndChar

StartChar: G
Encoding: 54 71 17
Width: 571
VWidth: 1024
LayerCount: 2
Fore
SplineSet
285.7143 142.85709 m 1
 285.7143 428.57139 l 1
 142.85715 428.57141 l 1
 142.85715 571.42856 l 1
 428.57146 571.42854 l 1
 428.57146 -0.0001 l 1
 142.85715 -0.0001 l 1
 142.85715 142.85712 l 1
 0 142.85709 l 1
 0 857.14285 l 1
 142.85715 857.14285 l 1
 142.85715 1000 l 1
 285.7143 1000 l 1
 285.7143 857.14285 l 1
 428.57146 857.14285 l 1
 428.57146 714.2857 l 1
 285.7143 714.2857 l 1
 285.7143 857.14285 l 1
 142.85715 857.14285 l 1
 142.85715 142.85712 l 1
 285.7143 142.85709 l 1
EndSplineSet
EndChar

StartChar: H
Encoding: 55 72 18
Width: 571
VWidth: 1024
LayerCount: 2
Fore
SplineSet
0 1000 m 1
 142.85715 1000 l 1
 142.85715 571.42854 l 1
 285.7143 571.42854 l 1
 285.7143 1000 l 1
 428.57146 1000 l 1
 428.57146 -0.0001 l 1
 285.7143 -0.0001 l 1
 285.7143 428.57139 l 1
 142.85715 428.57139 l 1
 142.85715 -0.0001 l 1
 0 -0.0001 l 1
 0 1000 l 1
EndSplineSet
EndChar

StartChar: I
Encoding: 56 73 19
Width: 571
VWidth: 1024
LayerCount: 2
Fore
SplineSet
0 1000 m 1
 428.57146 1000 l 1
 428.57146 857.14285 l 1
 285.7143 857.14285 l 1
 285.7143 142.85709 l 1
 428.57146 142.85709 l 1
 428.57146 -0.0001 l 1
 0 -0.0001 l 1
 0 142.85709 l 1
 142.85715 142.85709 l 1
 142.85715 857.14285 l 1
 0 857.14285 l 1
 0 1000 l 1
EndSplineSet
EndChar

StartChar: J
Encoding: 57 74 20
Width: 571
VWidth: 1024
LayerCount: 2
Fore
SplineSet
285.7143 1000 m 1
 428.57146 1000 l 1
 428.57146 142.85709 l 1
 285.7143 142.85709 l 1
 285.7143 -0.0001 l 1
 142.85715 -0.0001 l 1
 142.85715 142.85709 l 1
 0 142.85709 l 1
 0 428.57139 l 1
 142.85715 428.57139 l 1
 142.85715 142.85709 l 1
 285.7143 142.85709 l 1
 285.7143 1000 l 1
EndSplineSet
EndChar

StartChar: K
Encoding: 58 75 21
Width: 571
VWidth: 1024
LayerCount: 2
Fore
SplineSet
0 1000 m 1
 142.85715 1000 l 1
 142.85715 714.2857 l 1
 285.7143 714.2857 l 1
 285.7143 1000 l 1
 428.57146 1000 l 1
 428.57146 714.2857 l 1
 285.7143 714.2857 l 1
 285.7143 285.71424 l 1
 428.57146 285.71424 l 1
 428.57146 -0.0001 l 1
 285.7143 -0.0001 l 1
 285.7143 285.71424 l 1
 142.85715 285.71424 l 1
 142.85715 -0.0001 l 1
 0 -0.0001 l 1
 0 1000 l 1
EndSplineSet
EndChar

StartChar: L
Encoding: 59 76 22
Width: 571
VWidth: 1024
LayerCount: 2
Fore
SplineSet
0 1000 m 1
 142.85715 1000 l 1
 142.85715 142.85709 l 1
 428.57146 142.85709 l 1
 428.57146 -0.0001 l 1
 0 -0.0001 l 1
 0 1000 l 1
EndSplineSet
EndChar

StartChar: M
Encoding: 60 77 23
Width: 571
VWidth: 1024
LayerCount: 2
Fore
SplineSet
0 1000 m 1
 142.85715 1000 l 1
 142.85715 857.14285 l 1
 285.7143 857.14285 l 1
 285.7143 1000 l 1
 428.57146 1000 l 1
 428.57146 -0.0001 l 1
 0 -0.0001 l 1
 0 1000 l 1
EndSplineSet
EndChar

StartChar: N
Encoding: 61 78 24
Width: 571
VWidth: 1024
LayerCount: 2
Fore
SplineSet
0 1000 m 1
 142.85715 1000 l 1
 142.85715 714.2857 l 1
 285.7143 714.2857 l 1
 285.7143 1000 l 1
 428.57146 1000 l 1
 428.57146 -0.0001 l 1
 285.7143 -0.0001 l 1
 285.7143 285.71424 l 1
 142.85715 285.71424 l 1
 142.85715 -0.0001 l 1
 0 -0.0001 l 1
 0 1000 l 1
EndSplineSet
EndChar

StartChar: O
Encoding: 62 79 25
Width: 571
VWidth: 1024
LayerCount: 2
Fore
SplineSet
285.71484 1000 m 1
 285.71484 857.14258 l 1
 428.57227 857.14258 l 1
 428.57227 142.85742 l 1
 285.71484 142.85742 l 1
 285.71484 0 l 1
 142.85742 0 l 1
 142.85742 142.85742 l 1
 0 142.85742 l 1
 0 857.14258 l 1
 142.85742 857.14258 l 1
 142.85742 1000 l 1
 285.71484 1000 l 1
142.85742 142.85742 m 1
 285.71484 142.85742 l 1
 285.71484 857.14258 l 1
 142.85742 857.14258 l 1
 142.85742 142.85742 l 1
EndSplineSet
EndChar

StartChar: P
Encoding: 63 80 26
Width: 571
VWidth: 1024
LayerCount: 2
Fore
SplineSet
285.71484 1000 m 1
 285.71484 857.14258 l 1
 428.57227 857.14258 l 1
 428.57227 571.42773 l 1
 285.71484 571.42773 l 1
 285.71484 428.57227 l 1
 142.85742 428.57227 l 1
 142.85742 0 l 1
 0 0 l 1
 0 1000 l 1
 285.71484 1000 l 1
142.85715 857.14285 m 1
 142.85715 571.42856 l 1
 285.71484 571.42773 l 1
 285.71429 857.14285 l 1
 142.85715 857.14285 l 1
EndSplineSet
EndChar

StartChar: Q
Encoding: 64 81 27
Width: 571
VWidth: 1024
LayerCount: 2
Fore
SplineSet
285.71484 1000 m 1
 285.71484 857.14258 l 1
 142.85742 857.14258 l 1
 142.85742 1000 l 1
 285.71484 1000 l 1
428.57227 857.14258 m 1
 428.57227 285.71484 l 1
 285.71484 285.71484 l 1
 285.71484 857.14258 l 1
 428.57227 857.14258 l 1
285.71484 142.85742 m 1
 142.85742 142.85742 l 1
 142.85742 285.71484 l 1
 285.71484 285.71484 l 1
 285.71484 142.85742 l 1
0 285.71484 m 1
 0 857.14258 l 1
 142.85742 857.14258 l 1
 142.85742 285.71484 l 1
 0 285.71484 l 1
428.57144 142.85712 m 1
 428.57144 0 l 1
 285.71429 0 l 1
 285.71484 142.85742 l 1
 428.57144 142.85712 l 1
EndSplineSet
EndChar

StartChar: R
Encoding: 65 82 28
Width: 571
VWidth: 1024
LayerCount: 2
Fore
SplineSet
285.71484 1000 m 1
 285.71484 857.14258 l 1
 428.57227 857.14258 l 1
 428.57227 571.42773 l 1
 285.71484 571.42773 l 1
 285.71484 428.57227 l 1
 142.85742 428.57227 l 1
 142.85742 0 l 1
 0 0 l 1
 0 1000 l 1
 285.71484 1000 l 1
428.57227 428.57227 m 1
 428.57227 0 l 1
 285.71484 0 l 1
 285.71484 428.57227 l 1
 428.57227 428.57227 l 1
142.85715 857.14285 m 1
 142.85715 571.42856 l 1
 285.71429 571.42856 l 1
 285.71484 857.14258 l 1
 142.85715 857.14285 l 1
EndSplineSet
EndChar

StartChar: S
Encoding: 66 83 29
Width: 571
VWidth: 1024
LayerCount: 2
Fore
SplineSet
142.85715 1000 m 1
 285.7143 1000 l 1
 285.7143 857.14285 l 1
 428.57146 857.14285 l 1
 428.57146 714.2857 l 1
 285.7143 714.2857 l 1
 285.7143 857.14285 l 1
 142.85715 857.14285 l 1
 142.85715 571.42854 l 1
 285.7143 571.42854 l 1
 285.7143 428.57139 l 1
 428.57146 428.57139 l 1
 428.57146 142.85709 l 1
 285.7143 142.85709 l 1
 285.7143 -0.0001 l 1
 142.85715 -0.0001 l 1
 142.85715 142.85709 l 1
 0 142.85709 l 1
 0 285.71424 l 1
 142.85715 285.71424 l 1
 142.85715 142.85709 l 1
 285.7143 142.85709 l 1
 285.7143 428.57139 l 1
 142.85715 428.57139 l 1
 142.85715 571.42854 l 1
 0 571.42854 l 1
 0 857.14285 l 1
 142.85715 857.14285 l 1
 142.85715 1000 l 1
EndSplineSet
EndChar

StartChar: T
Encoding: 67 84 30
Width: 571
VWidth: 1024
LayerCount: 2
Fore
SplineSet
0 1000 m 1
 428.57146 1000 l 1
 428.57146 857.14285 l 1
 285.7143 857.14285 l 1
 285.7143 -0.0001 l 1
 142.85715 -0.0001 l 1
 142.85715 857.14285 l 1
 0 857.14285 l 1
 0 1000 l 1
EndSplineSet
EndChar

StartChar: U
Encoding: 68 85 31
Width: 571
VWidth: 1024
LayerCount: 2
Fore
SplineSet
0 1000 m 1
 142.85715 1000 l 1
 142.85715 142.85709 l 1
 285.7143 142.85709 l 1
 285.7143 1000 l 1
 428.57146 1000 l 1
 428.57146 142.85709 l 1
 285.7143 142.85709 l 1
 285.7143 -0.0001 l 1
 142.85715 -0.0001 l 1
 142.85715 142.85709 l 1
 0 142.85709 l 1
 0 1000 l 1
EndSplineSet
EndChar

StartChar: V
Encoding: 69 86 32
Width: 571
VWidth: 1024
LayerCount: 2
Fore
SplineSet
0 1000 m 1
 142.85715 1000 l 1
 142.85715 428.57139 l 1
 285.7143 428.57139 l 1
 285.7143 1000 l 1
 428.57146 1000 l 1
 428.57146 428.57139 l 1
 285.7143 428.57139 l 1
 285.7143 -0.0001 l 1
 142.85715 -0.0001 l 1
 142.85715 428.57139 l 1
 0 428.57139 l 1
 0 1000 l 1
EndSplineSet
EndChar

StartChar: W
Encoding: 70 87 33
Width: 571
VWidth: 1024
LayerCount: 2
Fore
SplineSet
0 1000 m 1
 428.57146 1000 l 1
 428.57146 -0.0001 l 1
 285.7143 -0.0001 l 1
 285.7143 142.85709 l 1
 142.85715 142.85709 l 1
 142.85715 -0.0001 l 1
 0 -0.0001 l 1
 0 1000 l 1
EndSplineSet
EndChar

StartChar: X
Encoding: 71 88 34
Width: 571
VWidth: 1024
LayerCount: 2
Fore
SplineSet
0 1000 m 1
 142.85715 1000 l 1
 142.85715 714.2857 l 1
 285.7143 714.2857 l 1
 285.7143 1000 l 1
 428.57146 1000 l 1
 428.57146 714.2857 l 1
 285.7143 714.2857 l 1
 285.7143 285.71424 l 1
 428.57146 285.71424 l 1
 428.57146 -0.0001 l 1
 285.7143 -0.0001 l 1
 285.7143 285.71424 l 1
 142.85715 285.71424 l 1
 142.85715 -0.0001 l 1
 0 -0.0001 l 1
 0 285.71424 l 1
 142.85715 285.71424 l 1
 142.85715 714.2857 l 1
 0 714.2857 l 1
 0 1000 l 1
EndSplineSet
EndChar

StartChar: Y
Encoding: 72 89 35
Width: 571
VWidth: 1024
LayerCount: 2
Fore
SplineSet
0 1000 m 1
 142.85715 1000 l 1
 142.85715 714.2857 l 1
 285.7143 714.2857 l 1
 285.7143 1000 l 1
 428.57146 1000 l 1
 428.57146 714.2857 l 1
 285.7143 714.2857 l 1
 285.7143 -0.0001 l 1
 142.85715 -0.0001 l 1
 142.85715 714.2857 l 1
 0 714.2857 l 1
 0 1000 l 1
EndSplineSet
EndChar

StartChar: Z
Encoding: 73 90 36
Width: 571
VWidth: 1024
LayerCount: 2
Fore
SplineSet
0 1000 m 1
 428.57146 1000 l 1
 428.57146 714.2857 l 1
 285.7143 714.2857 l 1
 285.7143 285.71424 l 1
 142.85715 285.71424 l 1
 142.85715 142.85709 l 1
 428.57146 142.85709 l 1
 428.57146 -0.0001 l 1
 0 -0.0001 l 1
 0 285.71424 l 1
 142.85715 285.71424 l 1
 142.85715 714.2857 l 1
 285.7143 714.2857 l 1
 285.7143 857.14285 l 1
 0 857.14285 l 1
 0 1000 l 1
EndSplineSet
EndChar
